# xmcd
#
# Track frame offsets: 
#        150
#        15747
#        31497
#        47295
#        60382
#        79405
#        91552
#        102407
#        114867
#        133437
#        143792
#        158800
#        172175
#        184947
#        194435
#
# Disc length: 2800 seconds
#
# Revision: 1
# Processed by: cddbd v1.5.1PL0 Copyright (c) Steve Scherf et al.
# Submitted via: ExactAudioCopy v0.90b4
#
DISCID=c70aee0f
DTITLE=Chris Connor - Lover Come Back to Me
DYEAR=1981
DGENRE=Jazz
TTITLE0=It Might As Well Be Spring
TTITLE1=Anyplace I Hang My Hat Is Home
TTITLE2=Where Flamingos Fly
TTITLE3=All Or Nothing At All
TTITLE4=Good Morning Heartache
TTITLE5=I've Got You Under My Skin
TTITLE6=A Foggy Day
TTITLE7=Lover Come Back To Me
TTITLE8=Lush Life
TTITLE9=Get Out Of Town
TTITLE10=Glad To Be Unhappy
TTITLE11=I Hear The Music Now
TTITLE12=All About Ronnie
TTITLE13=Just In Time
TTITLE14=My Heart Stood Still
EXTD=YEAR: 1981
EXTT0=
EXTT1=
EXTT2=
EXTT3=
EXTT4=
EXTT5=
EXTT6=
EXTT7=
EXTT8=
EXTT9=
EXTT10=
EXTT11=
EXTT12=
EXTT13=
EXTT14=
PLAYORDER=
